<?xml version="1.0" encoding="utf-8"?>
<?xml-stylesheet type="text/xsl" href="rss1.xsl"?>
<rss version="2.0" xmlns:atom="http://www.w3.org/2005/Atom" xmlns:content="http://purl.org/rss/1.0/modules/content/" xmlns:dc="http://purl.org/dc/elements/1.1/" xmlns:media="http://search.yahoo.com/mrss/">
<channel>
 <title>Getty</title>
 <link>http://www.gettyimg.com/</link>
 <atom:link href="http://www.gettyimg.com/" rel="self" type="application/rss+xml" />

 
                <item>
                <title><![CDATA[【PRORES HD】Thomas Rhett, Kane Brown, Ava Max - On Me [Master ProRes 800p]]]></title>
                <link><![CDATA[https://sharemania.us/threads/thomas-rhett-kane-brown-ava-max-on-me-master-prores-800p.221144/]]></link>
                <description><![CDATA[<article>
<blockquote class="messageText SelectQuoteContainer ugc baseHtml">
<div style="text-align: center"><img src="https://i.ibb.co/jRhgdD0/Thomas-Rhett-Kane-Brown-Ava-Max-On-Me-Master-Pro-Res-800p-mov.png" class="bbCodeImage LbImage" alt="[​IMG]" data-url="https://i.ibb.co/jRhgdD0/Thomas-Rhett-Kane-Brown-Ava-Max-On-Me-Master-Pro-Res-800p-mov.png" style=""> <br>
<br>
<div class="ToggleTriggerAnchor bbCodeSpoilerContainer">
<button type="button" class="button bbCodeSpoilerButton ToggleTrigger Tooltip JsOnly" data-target="> .SpoilerTarget"><span>Spoiler: <span class="SpoilerTitle">Mediainfo</span></span></button>
<div class="SpoilerTarget bbCodeSpoilerText"><b>General</b><br>
Complete name : Thomas Rhett, Kane Brown, Ava Max - On Me [Master ProRes 800p].mov<br>
Format : MPEG-4<br>
Format profile : QuickTime<br>
Codec ID : qt 2005.03 (qt )<br>
File size : 3.02 GiB<br>
Duration : 2 min 50 s<br>
Overall bit rate mode : Variable<br>
Overall bit rate : 152 Mb/s<br>
Encoded date : UTC 2020-05-16 22:26:06<br>
Tagged date : UTC 2020-05-13 22:26:31<br>
Writing library : Apple QuickTime<br>
TIM : 00:00:00:00<br>
TSC : 24000<br>
TSZ : 1001<br>
<br>
<b>Video</b><br>
ID : 1<br>
Format : ProRes<br>
Format version : Version 0<br>
Format profile : 422 HQ<br>
Codec ID : apch<br>
Duration : 2 min 50 s<br>
Bit rate mode : Variable<br>
Bit rate : 151 Mb/s<br>
Width : 1 920 pixels<br>
Height : 800 pixels<br>
Display aspect ratio : 2.40:1<br>
Frame rate mode : Constant<br>
Frame rate : 23.976 (24000/1001) FPS<br>
Color space : YUV<br>
Chroma subsampling : 4:2:2<br>
Scan type : Progressive<br>
Bits/(Pixel*Frame) : 4.091<br>
Stream size : 2.99 GiB (99%)<br>
Writing library : Apple<br>
Language : English<br>
Encoded date : UTC 2020-05-16 22:26:06<br>
Tagged date : UTC 2020-05-16 22:26:06<br>
Color primaries : BT.709<br>
Transfer characteristics : BT.709<br>
Matrix coefficients : BT.709<br>
Menus : 0<br>
<br>
<b>Audio</b><br>
ID : 2<br>
Format : PCM<br>
Format settings : Little / Signed<br>
Codec ID : sowt<br>
Duration : 2 min 50 s<br>
Bit rate mode : Constant<br>
Bit rate : 1 411.2 kb/s<br>
Channel(s) : 2 channels<br>
Channel layout : L R<br>
Sampling rate : 44.1 kHz<br>
Bit depth : 16 bits<br>
Stream size : 28.6 MiB (1%)<br>
Language : English<br>
Encoded date : UTC 2020-05-16 22:26:06<br>
Tagged date : UTC 2020-05-16 22:26:06<br>
Menus : 0<br>
<br>
<b>Other</b><br>
ID : 3<br>
Type : Time code<br>
Format : QuickTime TC<br>
Duration : 2 min 50 s<br>
Frame rate : 23.976 (24000/1001) FPS<br>
Time code of first frame : 00:00:00:00<br>
Time code of last frame : 00:02:50:01<br>
Time code, stripped : Yes<br>
Language : English<br>
Encoded date : UTC 2020-05-16 22:26:06<br>
Tagged date : UTC 2020-05-16 22:26:06</div>
</div><br>
<div class="bbCodeBlock bbCodeVfcHH HiddenContent">
<div class="attribution type">Hidden Content:</div>
<blockquote>You must reply before you can see the hidden data contained here.</blockquote>
</div></div>
<div class="messageTextEndMarker">&nbsp;</div>
</blockquote>
</article>]]></description>
                <author><![CDATA[von_3649]]></author>
                </item>

                
                <item>
                <title><![CDATA[【PRORES HD】WINNER - Island [Master ProRes 1080p]]]></title>
                <link><![CDATA[https://sharemania.us/threads/winner-island-master-prores-1080p.221143/]]></link>
                <description><![CDATA[<article>
<blockquote class="messageText SelectQuoteContainer ugc baseHtml">
<div style="text-align: center"><img src="https://i.ibb.co/4J81JYS/WINNER-Island-Master-Pro-Res-1080p-mov.png" class="bbCodeImage LbImage" alt="[​IMG]" data-url="https://i.ibb.co/4J81JYS/WINNER-Island-Master-Pro-Res-1080p-mov.png" style=""> <br>
<br>
<div class="ToggleTriggerAnchor bbCodeSpoilerContainer">
<button type="button" class="button bbCodeSpoilerButton ToggleTrigger Tooltip JsOnly" data-target="> .SpoilerTarget"><span>Spoiler: <span class="SpoilerTitle">Mediainfo</span></span></button>
<div class="SpoilerTarget bbCodeSpoilerText"><b>General</b><br>
Complete name : WINNER - Island [Master ProRes 1080p].mov<br>
Format : MPEG-4<br>
Format profile : QuickTime<br>
Codec ID : qt 2005.03 (qt )<br>
File size : 4.46 GiB<br>
Duration : 3 min 36 s<br>
Overall bit rate mode : Variable<br>
Overall bit rate : 177 Mb/s<br>
Encoded date : UTC 2017-08-03 19:49:14<br>
Tagged date : UTC 2017-08-03 20:18:12<br>
Writing library : Apple QuickTime<br>
TIM : 00:00:00:00<br>
TSC : 2997<br>
TSZ : 125<br>
<br>
<b>Video</b><br>
ID : 1<br>
Format : ProRes<br>
Format version : Version 0<br>
Format profile : 422 HQ<br>
Codec ID : apch<br>
Duration : 3 min 36 s<br>
Bit rate mode : Variable<br>
Bit rate : 175 Mb/s<br>
Width : 1 920 pixels<br>
Height : 1 080 pixels<br>
Display aspect ratio : 16:9<br>
Frame rate mode : Constant<br>
Frame rate : 23.976 (24000/1001) FPS<br>
Color space : YUV<br>
Chroma subsampling : 4:2:2<br>
Scan type : Progressive<br>
Bits/(Pixel*Frame) : 3.528<br>
Stream size : 4.42 GiB (99%)<br>
Writing library : Apple<br>
Language : English<br>
Encoded date : UTC 2017-08-03 19:49:14<br>
Tagged date : UTC 2017-08-03 19:49:14<br>
Color primaries : BT.709<br>
Transfer characteristics : BT.709<br>
Matrix coefficients : BT.709<br>
<br>
<b>Audio</b><br>
ID : 2<br>
Format : PCM<br>
Format settings : Little / Signed<br>
Codec ID : sowt<br>
Duration : 3 min 36 s<br>
Bit rate mode : Constant<br>
Bit rate : 1 536 kb/s<br>
Channel(s) : 2 channels<br>
Channel layout : L R<br>
Sampling rate : 48.0 kHz<br>
Bit depth : 16 bits<br>
Stream size : 39.6 MiB (1%)<br>
Language : English<br>
Encoded date : UTC 2017-08-03 19:49:14<br>
Tagged date : UTC 2017-08-03 19:49:14<br>
<br>
<b>Other</b><br>
ID : 3<br>
Type : Time code<br>
Format : QuickTime TC<br>
Duration : 3 min 36 s<br>
Frame rate : 23.976 (23976/1000) FPS<br>
Time code of first frame : 00:00:00:00<br>
Time code of last frame : 00:03:36:01<br>
Time code, stripped : Yes<br>
Language : English<br>
Encoded date : UTC 2017-08-03 19:49:14<br>
Tagged date : UTC 2017-08-03 19:49:14</div>
</div><br>
<div class="bbCodeBlock bbCodeVfcHH HiddenContent">
<div class="attribution type">Hidden Content:</div>
<blockquote>You must reply before you can see the hidden data contained here.</blockquote>
</div></div>
<div class="messageTextEndMarker">&nbsp;</div>
</blockquote>
</article>]]></description>
                <author><![CDATA[von_3649]]></author>
                </item>

                </channel></rss>